<mxfile host="app.diagrams.net" modified="2023-03-15T06:33:47.147Z" agent="5.0 (Windows NT 10.0; Win64; x64) AppleWebKit/537.36 (KHTML, like Gecko) Chrome/111.0.0.0 Safari/537.36" etag="bwnkFaK91zPViF0ZsM5Y" version="21.0.6" type="github">
  <diagram name="第 1 页" id="1UPqQfOd0NQzTnRcW2cJ">
    <mxGraphModel dx="2154" dy="748" grid="1" gridSize="10" guides="1" tooltips="1" connect="1" arrows="1" fold="1" page="1" pageScale="1" pageWidth="827" pageHeight="1169" math="0" shadow="0">
      <root>
        <mxCell id="0" />
        <mxCell id="1" parent="0" />
        <mxCell id="C2MKzLzOxBQ5kkaVRscL-20" value="" style="rounded=0;whiteSpace=wrap;html=1;glass=0;enumerate=0;comic=1;" vertex="1" parent="1">
          <mxGeometry x="65" y="450" width="850" height="650" as="geometry" />
        </mxCell>
        <mxCell id="zQu5PIPiffq-Litvt3hq-3" value="&lt;font style=&quot;font-size: 16px;&quot;&gt;&lt;b&gt;通用子域&lt;/b&gt;&lt;/font&gt;" style="rounded=1;whiteSpace=wrap;html=1;fillColor=#f8cecc;strokeColor=#b85450;" parent="1" vertex="1">
          <mxGeometry x="80" y="90" width="230" height="80" as="geometry" />
        </mxCell>
        <mxCell id="zQu5PIPiffq-Litvt3hq-4" value="&lt;font style=&quot;font-size: 16px;&quot;&gt;&lt;b&gt;功能域&lt;/b&gt;&lt;/font&gt;" style="rounded=1;whiteSpace=wrap;html=1;fillColor=#dae8fc;strokeColor=#6c8ebf;" parent="1" vertex="1">
          <mxGeometry x="360" y="90" width="230" height="80" as="geometry" />
        </mxCell>
        <mxCell id="zQu5PIPiffq-Litvt3hq-5" value="&lt;font style=&quot;font-size: 16px;&quot;&gt;&lt;b&gt;核心子领域&lt;/b&gt;&lt;/font&gt;" style="rounded=1;whiteSpace=wrap;html=1;fillColor=#d5e8d4;strokeColor=#82b366;" parent="1" vertex="1">
          <mxGeometry x="640" y="90" width="230" height="80" as="geometry" />
        </mxCell>
        <mxCell id="zQu5PIPiffq-Litvt3hq-6" value="&lt;font style=&quot;font-size: 16px;&quot;&gt;限界上下文&lt;/font&gt;" style="ellipse;whiteSpace=wrap;html=1;" parent="1" vertex="1">
          <mxGeometry x="130" y="220" width="120" height="80" as="geometry" />
        </mxCell>
        <mxCell id="zQu5PIPiffq-Litvt3hq-9" style="edgeStyle=orthogonalEdgeStyle;orthogonalLoop=1;jettySize=auto;html=1;curved=1;exitX=-0.008;exitY=0.6;exitDx=0;exitDy=0;exitPerimeter=0;" parent="1" source="zQu5PIPiffq-Litvt3hq-7" target="zQu5PIPiffq-Litvt3hq-8" edge="1">
          <mxGeometry relative="1" as="geometry" />
        </mxCell>
        <mxCell id="zQu5PIPiffq-Litvt3hq-11" style="edgeStyle=orthogonalEdgeStyle;orthogonalLoop=1;jettySize=auto;html=1;entryX=0.667;entryY=0;entryDx=0;entryDy=0;entryPerimeter=0;curved=1;exitX=1;exitY=0.5;exitDx=0;exitDy=0;" parent="1" source="zQu5PIPiffq-Litvt3hq-7" target="zQu5PIPiffq-Litvt3hq-10" edge="1">
          <mxGeometry relative="1" as="geometry" />
        </mxCell>
        <mxCell id="zQu5PIPiffq-Litvt3hq-7" value="&lt;font style=&quot;font-size: 16px;&quot;&gt;实体&lt;/font&gt;" style="ellipse;whiteSpace=wrap;html=1;" parent="1" vertex="1">
          <mxGeometry x="430" y="230" width="120" height="80" as="geometry" />
        </mxCell>
        <mxCell id="zQu5PIPiffq-Litvt3hq-8" value="&lt;span style=&quot;font-size: 16px;&quot;&gt;资源库&lt;/span&gt;" style="ellipse;whiteSpace=wrap;html=1;" parent="1" vertex="1">
          <mxGeometry x="330" y="340" width="120" height="80" as="geometry" />
        </mxCell>
        <mxCell id="zQu5PIPiffq-Litvt3hq-10" value="&lt;span style=&quot;font-size: 16px;&quot;&gt;聚合&lt;/span&gt;" style="ellipse;whiteSpace=wrap;html=1;" parent="1" vertex="1">
          <mxGeometry x="530" y="340" width="120" height="80" as="geometry" />
        </mxCell>
        <mxCell id="C2MKzLzOxBQ5kkaVRscL-1" value="&lt;div style=&quot;&quot;&gt;&lt;span style=&quot;background-color: initial;&quot;&gt;问题： 对象重复&lt;/span&gt;&lt;/div&gt;&lt;div style=&quot;&quot;&gt;&lt;span style=&quot;background-color: initial;&quot;&gt;&amp;nbsp; 开发者只需要关注自己的领域服务，主服务不需要去维护。&lt;/span&gt;&lt;/div&gt;" style="whiteSpace=wrap;html=1;align=left;strokeColor=#3DFFAB;" vertex="1" parent="1">
          <mxGeometry x="-270" y="650" width="300" height="130" as="geometry" />
        </mxCell>
        <mxCell id="C2MKzLzOxBQ5kkaVRscL-2" value="&lt;font face=&quot;Comic Sans MS&quot; style=&quot;font-size: 16px;&quot;&gt;基础设施层&lt;/font&gt;" style="rounded=1;whiteSpace=wrap;html=1;fillColor=#fad7ac;strokeColor=#b46504;comic=1;" vertex="1" parent="1">
          <mxGeometry x="180" y="652.5" width="120" height="60" as="geometry" />
        </mxCell>
        <mxCell id="C2MKzLzOxBQ5kkaVRscL-3" value="&lt;font style=&quot;font-size: 16px;&quot;&gt;应用层&lt;/font&gt;" style="rounded=1;whiteSpace=wrap;html=1;fillColor=#b0e3e6;strokeColor=#0e8088;comic=1;" vertex="1" parent="1">
          <mxGeometry x="180" y="790" width="120" height="60" as="geometry" />
        </mxCell>
        <mxCell id="C2MKzLzOxBQ5kkaVRscL-4" value="&lt;font face=&quot;Comic Sans MS&quot; style=&quot;font-size: 16px;&quot;&gt;用户界面层&lt;/font&gt;" style="rounded=1;whiteSpace=wrap;html=1;fillColor=#dae8fc;strokeColor=#6c8ebf;comic=1;" vertex="1" parent="1">
          <mxGeometry x="180" y="510" width="120" height="60" as="geometry" />
        </mxCell>
        <mxCell id="C2MKzLzOxBQ5kkaVRscL-5" value="&lt;font face=&quot;Comic Sans MS&quot; style=&quot;font-size: 16px;&quot;&gt;Web端&lt;/font&gt;" style="rounded=1;whiteSpace=wrap;html=1;fillColor=#d5e8d4;strokeColor=#82b366;comic=1;" vertex="1" parent="1">
          <mxGeometry x="353.5" y="505" width="346.5" height="70" as="geometry" />
        </mxCell>
        <mxCell id="C2MKzLzOxBQ5kkaVRscL-6" value="" style="rounded=1;whiteSpace=wrap;html=1;fillColor=#60a917;fontColor=#ffffff;strokeColor=#2D7600;comic=1;" vertex="1" parent="1">
          <mxGeometry x="353.5" y="630" width="346.5" height="105" as="geometry" />
        </mxCell>
        <mxCell id="C2MKzLzOxBQ5kkaVRscL-7" value="认证" style="rounded=1;whiteSpace=wrap;html=1;shadow=1;fillColor=#f8cecc;gradientColor=#ea6b66;strokeColor=#b85450;" vertex="1" parent="1">
          <mxGeometry x="381.75" y="665" width="78.25" height="25" as="geometry" />
        </mxCell>
        <mxCell id="C2MKzLzOxBQ5kkaVRscL-8" value="通知" style="rounded=1;whiteSpace=wrap;html=1;shadow=1;fillColor=#f8cecc;gradientColor=#ea6b66;strokeColor=#b85450;" vertex="1" parent="1">
          <mxGeometry x="471.75" y="665" width="78.25" height="25" as="geometry" />
        </mxCell>
        <mxCell id="C2MKzLzOxBQ5kkaVRscL-11" value="&lt;font style=&quot;font-size: 16px;&quot;&gt;领域层&lt;/font&gt;" style="rounded=1;whiteSpace=wrap;html=1;fillColor=#b1ddf0;strokeColor=#10739e;comic=1;" vertex="1" parent="1">
          <mxGeometry x="180" y="950" width="120" height="60" as="geometry" />
        </mxCell>
        <mxCell id="C2MKzLzOxBQ5kkaVRscL-12" value="" style="rounded=0;whiteSpace=wrap;html=1;fillColor=#fad7ac;strokeColor=#b46504;comic=1;" vertex="1" parent="1">
          <mxGeometry x="348.75" y="920" width="356" height="100" as="geometry" />
        </mxCell>
        <mxCell id="C2MKzLzOxBQ5kkaVRscL-13" value="&lt;font style=&quot;font-size: 16px;&quot;&gt;聚合&lt;/font&gt;" style="rounded=1;whiteSpace=wrap;html=1;" vertex="1" parent="1">
          <mxGeometry x="370" y="950" width="90" height="40" as="geometry" />
        </mxCell>
        <mxCell id="C2MKzLzOxBQ5kkaVRscL-14" value="&lt;font style=&quot;font-size: 16px;&quot;&gt;领域服务&lt;/font&gt;" style="rounded=1;whiteSpace=wrap;html=1;" vertex="1" parent="1">
          <mxGeometry x="481.75" y="950" width="90" height="40" as="geometry" />
        </mxCell>
        <mxCell id="C2MKzLzOxBQ5kkaVRscL-16" value="&lt;span style=&quot;font-size: 16px;&quot;&gt;资源库&lt;/span&gt;" style="rounded=1;whiteSpace=wrap;html=1;" vertex="1" parent="1">
          <mxGeometry x="600" y="950" width="90" height="40" as="geometry" />
        </mxCell>
        <mxCell id="C2MKzLzOxBQ5kkaVRscL-17" value="BFF" style="text;strokeColor=none;align=center;fillColor=none;html=1;verticalAlign=middle;whiteSpace=wrap;rounded=0;fontSize=16;fontStyle=1;fontFamily=Comic Sans MS;" vertex="1" parent="1">
          <mxGeometry x="740" y="667.5" width="60" height="30" as="geometry" />
        </mxCell>
        <mxCell id="C2MKzLzOxBQ5kkaVRscL-21" value="租户" style="rounded=1;whiteSpace=wrap;html=1;shadow=1;fillColor=#f8cecc;gradientColor=#ea6b66;strokeColor=#b85450;" vertex="1" parent="1">
          <mxGeometry x="561.75" y="665" width="78.25" height="25" as="geometry" />
        </mxCell>
      </root>
    </mxGraphModel>
  </diagram>
</mxfile>
